<svg width="24" height="24" viewBox="0 0 24 24" fill="none" xmlns="http://www.w3.org/2000/svg">
<path fill-rule="evenodd" clip-rule="evenodd" d="M17.3269 8.8031C17.6198 8.5102 17.6198 8.03533 17.3269 7.74244C17.034 7.44954 16.5591 7.44954 16.2662 7.74244L9.86935 14.1393L7.64526 11.9152C7.35237 11.6223 6.87749 11.6223 6.5846 11.9152C6.29171 12.2081 6.29171 12.683 6.5846 12.9759L9.33497 15.7262C9.33631 15.7276 9.33765 15.7289 9.339 15.7303C9.44884 15.8401 9.58427 15.9088 9.72609 15.9362C9.79288 15.9492 9.86109 15.953 9.92872 15.9476C10.1004 15.9341 10.2684 15.8616 10.3997 15.7303C10.4012 15.7288 10.4027 15.7272 10.4043 15.7257L17.3269 8.8031Z" fill="#27AE60"/>
</svg>
