<svg width="24" height="24" viewBox="0 0 24 24" fill="none" xmlns="http://www.w3.org/2000/svg">
<path fill-rule="evenodd" clip-rule="evenodd" d="M13.2134 18.9999C10.5404 18.9999 8.00065 17.0549 8.00065 14.6559C7.9696 12.7866 9.11397 11.0985 10.8619 10.4352C10.9322 10.4066 11.0123 10.4167 11.0733 10.4619C11.1343 10.5071 11.1672 10.5809 11.1602 10.6565C11.038 11.5913 11.3964 12.5246 12.113 13.1372C12.2801 13.2788 12.5265 13.2736 12.6875 13.125C13.4521 12.4202 15.327 10.0918 11.9792 6.36231C11.9186 6.29499 11.9062 6.19719 11.948 6.11687C11.9898 6.03655 12.077 5.99057 12.1668 6.00146C15.3107 6.38779 18.4263 9.93481 18.4263 13.3527C18.4263 16.2487 16.6887 18.9999 13.2134 18.9999Z" fill="#FBB83C"/>
<path d="M16.1052 13.7819C16.1784 15.6971 14.6888 17.3108 12.7738 17.3907" stroke="#130E20" stroke-width="1.3" stroke-linecap="round" stroke-linejoin="round"/>
<path fill-rule="evenodd" clip-rule="evenodd" d="M12.2186 20.9999C8.51752 20.9999 5.00088 18.3069 5.00088 14.9851C4.9579 12.3969 6.54241 10.0595 8.96261 9.14115C9.05994 9.10146 9.17093 9.11546 9.25535 9.17808C9.33977 9.2407 9.38537 9.34285 9.37563 9.4475C9.20641 10.7419 9.70271 12.0341 10.6949 12.8823C10.9263 13.0784 11.2675 13.0711 11.4904 12.8655C12.549 11.8895 15.145 8.66558 10.5096 3.5017C10.4258 3.40849 10.4086 3.27307 10.4664 3.16187C10.5243 3.05066 10.645 2.98698 10.7695 3.00207C15.1225 3.53699 19.4363 8.44825 19.4363 13.1807C19.4363 17.1905 17.0304 20.9999 12.2186 20.9999Z" stroke="#130E20" stroke-width="1.3" stroke-linecap="round" stroke-linejoin="round"/>
</svg>
