<svg width="1441" height="494" viewBox="0 0 1441 494" fill="none" xmlns="http://www.w3.org/2000/svg">
<g opacity="0.3">
<mask id="mask0_634_136" style="mask-type:alpha" maskUnits="userSpaceOnUse" x="0" y="0" width="1441" height="494">
<rect width="1441" height="494" fill="#C4C4C4"/>
</mask>
<g mask="url(#mask0_634_136)">
<path d="M326.464 154.701L239.844 184.893C239.095 185.154 238.934 186.143 239.562 186.628L303.072 235.748C303.281 235.909 303.545 235.982 303.807 235.949L398.115 224.26C398.953 224.156 399.293 223.124 398.681 222.543L327.482 154.92C327.21 154.662 326.817 154.577 326.464 154.701Z" fill="#E7E7E7"/>
<path d="M632.865 169.025L521.707 230.429L521.707 230.429C521.203 230.708 520.951 230.847 520.813 231.082C520.674 231.317 520.674 231.605 520.674 232.18V284.478C520.674 285.43 520.674 285.907 520.971 286.2C521.267 286.494 521.743 286.488 522.695 286.478L1537.49 275.503C1537.66 275.502 1537.74 275.501 1537.82 275.487C1537.89 275.473 1537.97 275.447 1538.12 275.395L1619.21 247.465C1619.86 247.24 1620.19 247.128 1620.38 246.867C1620.56 246.607 1620.56 246.262 1620.56 245.574V72.7537C1620.56 69.6526 1620.56 68.102 1619.81 67.9085C1619.06 67.715 1618.31 69.0721 1616.81 71.7862L1575.8 146.003C1575.4 146.717 1575.2 147.075 1574.86 147.204C1574.51 147.334 1574.13 147.194 1573.36 146.915L1541.81 135.43C1541.24 135.221 1540.95 135.117 1540.67 135.177C1540.39 135.238 1540.17 135.452 1539.73 135.879L1445.48 227.972L1445.48 227.972C1445.21 228.233 1445.08 228.364 1444.91 228.437C1444.75 228.51 1444.56 228.52 1444.19 228.539L1181.92 241.979C1181.71 241.989 1181.61 241.995 1181.51 241.979C1181.41 241.964 1181.31 241.928 1181.12 241.856L1025.16 183.762C1024.82 183.632 1024.64 183.568 1024.46 183.568C1024.28 183.569 1024.11 183.634 1023.76 183.766L899.773 230.683C899.361 230.839 899.155 230.917 898.942 230.905C898.729 230.892 898.534 230.791 898.143 230.587L898.143 230.587L830.135 195.226C829.919 195.113 829.811 195.057 829.694 195.029C829.577 195 829.455 195 829.212 195H798.789C798.486 195 798.335 195 798.192 194.957C798.05 194.913 797.924 194.829 797.673 194.66L718.325 141.309C717.745 140.918 717.455 140.723 717.131 140.735C716.807 140.746 716.531 140.961 715.98 141.391L662.984 182.702C662.486 183.089 662.238 183.283 661.943 183.308C661.648 183.334 661.37 183.186 660.813 182.889L634.773 169.01C634.304 168.761 634.07 168.636 633.816 168.638C633.562 168.64 633.33 168.768 632.865 169.025Z" fill="url(#paint0_linear_634_136)"/>
<path d="M163.14 126.014L75.2978 198.743C74.3287 199.545 73.8442 199.947 73.8766 200.455C73.909 200.964 74.4405 201.301 75.5037 201.973L260.558 319.106C260.867 319.301 261.021 319.398 261.195 319.436C261.369 319.473 261.55 319.447 261.911 319.396L404.219 299.071C404.467 299.036 404.592 299.018 404.715 299.031C404.839 299.044 404.956 299.088 405.192 299.174L642.991 386.648C643.46 386.821 643.694 386.907 643.932 386.879C644.171 386.85 644.378 386.712 644.793 386.434L695.668 352.419C695.979 352.212 696.134 352.108 696.311 352.067C696.489 352.026 696.674 352.05 697.044 352.099L801.346 365.972C801.451 365.986 801.504 365.993 801.556 365.994C801.609 365.996 801.662 365.992 801.768 365.983L1122.21 340.515C1122.31 340.508 1122.36 340.504 1122.4 340.505C1122.45 340.505 1122.5 340.511 1122.59 340.521L1283.51 358.45C1283.73 358.475 1283.84 358.487 1283.95 358.475C1284.06 358.463 1284.17 358.427 1284.38 358.354L1535.47 272C1536.78 271.549 1537.44 271.324 1537.57 270.797C1537.7 270.271 1537.23 269.763 1536.29 268.747L1435.63 160.488C1434.98 159.788 1434.65 159.437 1434.23 159.425C1433.81 159.414 1433.47 159.745 1432.78 160.407L1364.98 225.491C1364.72 225.743 1364.58 225.869 1364.42 225.94C1364.26 226.011 1364.08 226.022 1363.71 226.044L1040.9 245.459C1040.57 245.479 1040.4 245.489 1040.24 245.445C1040.08 245.401 1039.94 245.306 1039.66 245.115L993.22 213.459C992.548 213.001 992.212 212.772 991.847 212.811C991.481 212.85 991.201 213.145 990.642 213.735L941.345 265.705C940.976 266.094 940.791 266.288 940.547 266.366C940.304 266.445 940.04 266.394 939.514 266.292L757.646 231.108C757.369 231.054 757.23 231.028 757.091 231.04C756.952 231.051 756.82 231.102 756.556 231.202L664.256 266.269C663.955 266.383 663.804 266.441 663.646 266.448C663.487 266.456 663.331 266.414 663.02 266.329L465.881 212.601C465.697 212.551 465.604 212.525 465.509 212.518C465.414 212.511 465.319 212.522 465.129 212.544L304.198 230.909C303.803 230.954 303.605 230.976 303.419 230.925C303.232 230.873 303.074 230.753 302.758 230.512L165.628 125.964C165.022 125.501 164.719 125.27 164.37 125.277C164.021 125.284 163.727 125.527 163.14 126.014Z" fill="url(#paint1_linear_634_136)"/>
<ellipse cx="894.986" cy="56.205" rx="4.08385" ry="3.62757" fill="white" fill-opacity="0.25"/>
<ellipse cx="455.732" cy="152.814" rx="2.04193" ry="1.81379" fill="white" fill-opacity="0.25"/>
<ellipse cx="506.392" cy="177.814" rx="2.04193" ry="1.81379" fill="white" fill-opacity="0.25"/>
<ellipse cx="810.143" cy="172.628" rx="4.08385" ry="3.62757" fill="white" fill-opacity="0.25"/>
<ellipse cx="69.3791" cy="141.628" rx="4.08385" ry="3.62757" fill="white" fill-opacity="0.25"/>
<ellipse cx="378.563" cy="87.2672" rx="2.55241" ry="2.26723" fill="white" fill-opacity="0.25"/>
<ellipse cx="1284.52" cy="137" rx="2.25156" ry="2" fill="white" fill-opacity="0.25"/>
<ellipse cx="1135.91" cy="168" rx="3.37734" ry="3" fill="white" fill-opacity="0.25"/>
<path d="M260.558 303.105L2.50829 139.448C1.15168 138.587 0.473369 138.157 -0.0447487 138.442C-0.562866 138.727 -0.562866 139.53 -0.562866 141.137V532C-0.562866 532.943 -0.562866 533.414 -0.269973 533.707C0.0229203 534 0.494326 534 1.43714 534H641.947C642.89 534 643.361 534 643.654 533.707C643.947 533.414 643.947 532.943 643.947 532V371.898C643.947 371.222 643.947 370.884 643.767 370.626C643.586 370.368 643.269 370.252 642.634 370.02L405.191 283.173C404.956 283.087 404.838 283.044 404.715 283.031C404.592 283.018 404.468 283.036 404.221 283.071L261.912 303.396C261.551 303.447 261.37 303.473 261.195 303.436C261.021 303.398 260.866 303.3 260.558 303.105Z" fill="url(#paint2_linear_634_136)"/>
<path d="M695.615 304.01L403.157 530.416C401.236 531.902 400.276 532.646 400.508 533.322C400.739 533.999 401.953 533.998 404.382 533.997L1619.13 533.419C1620.07 533.418 1620.54 533.418 1620.83 533.125C1621.12 532.832 1621.12 532.361 1621.12 531.419V178.956C1621.12 177.617 1621.12 176.947 1620.69 176.65C1620.25 176.352 1619.62 176.601 1618.38 177.099L1618.38 177.099L1284.44 310.857C1284.2 310.953 1284.08 311.001 1283.95 311.017C1283.82 311.033 1283.69 311.017 1283.44 310.983L1122.62 290.123C1122.51 290.109 1122.46 290.101 1122.4 290.1C1122.35 290.099 1122.29 290.105 1122.18 290.115L801.802 319.759C801.679 319.771 801.618 319.776 801.557 319.775C801.495 319.773 801.434 319.763 801.312 319.744L697.146 303.615C696.727 303.55 696.517 303.517 696.318 303.569C696.118 303.62 695.951 303.75 695.615 304.01Z" fill="url(#paint3_linear_634_136)"/>
<path d="M696.296 483.304L505.176 540.076C500.22 541.548 497.742 542.284 497.866 543.141C497.991 543.997 500.576 543.996 505.746 543.993L1619.13 543.454C1620.07 543.454 1620.54 543.453 1620.83 543.161C1621.12 542.868 1621.12 542.397 1621.12 541.454V289.647C1621.12 288.433 1621.12 287.826 1620.73 287.526C1620.33 287.226 1619.75 287.392 1618.58 287.724L1359.79 361.25C1359.59 361.308 1359.48 361.337 1359.38 361.344C1359.27 361.351 1359.17 361.336 1358.96 361.307L1127.4 328.627C1127.15 328.592 1127.03 328.575 1126.91 328.587C1126.79 328.6 1126.67 328.642 1126.44 328.725L696.296 483.304Z" fill="url(#paint4_linear_634_136)"/>
</g>
</g>
<defs>
<linearGradient id="paint0_linear_634_136" x1="1578.91" y1="8.50005" x2="682.637" y2="371.274" gradientUnits="userSpaceOnUse">
<stop stop-color="#E6E6E6"/>
<stop offset="0.491021" stop-color="#D9D9D9"/>
<stop offset="0.732053" stop-color="#C7C7C7"/>
<stop offset="1" stop-color="#E7E7E7"/>
</linearGradient>
<linearGradient id="paint1_linear_634_136" x1="1017.14" y1="-147" x2="846.408" y2="399.689" gradientUnits="userSpaceOnUse">
<stop stop-color="#D5D5D5"/>
<stop offset="1" stop-color="#F0F0F0"/>
</linearGradient>
<linearGradient id="paint2_linear_634_136" x1="489.715" y1="121.5" x2="97.307" y2="633.596" gradientUnits="userSpaceOnUse">
<stop stop-color="#EFEFEF"/>
<stop offset="1" stop-color="#C0C0C0"/>
</linearGradient>
<linearGradient id="paint3_linear_634_136" x1="1122.97" y1="300.572" x2="304.317" y2="578.515" gradientUnits="userSpaceOnUse">
<stop stop-color="#DBDBDB"/>
<stop offset="1" stop-color="#EAEAEA"/>
</linearGradient>
<linearGradient id="paint4_linear_634_136" x1="1133.1" y1="324.73" x2="1380.67" y2="744.485" gradientUnits="userSpaceOnUse">
<stop stop-color="#EBEBEB"/>
<stop offset="1" stop-color="#D5D5D5"/>
</linearGradient>
</defs>
</svg>
